<svg xmlns="http://www.w3.org/2000/svg" viewBox="0 0 100 100" width="100" height="100">
  <defs>
    <linearGradient id="leaf" x1="50" y1="10" x2="50" y2="92" gradientUnits="userSpaceOnUse">
      <stop offset="0" stop-color="#8ef06b"/>
      <stop offset="0.55" stop-color="#32d74b"/>
      <stop offset="1" stop-color="#0f5132"/>
    </linearGradient>
  </defs>
  <rect width="100" height="100" rx="24" fill="#071423"/>
  <g fill="url(#leaf)" stroke="#0b2a1c" stroke-width="0.75" stroke-linejoin="round">
    <path d="M50,90 Q60,51 50,12 Q40,51 50,90 Z"/>
    <path d="M50,90 Q75.4,67.4 86.9,35.3 Q61.4,57.9 50,90 Z"/>
    <path d="M50,90 Q24.6,67.4 13.1,35.3 Q38.6,57.9 50,90 Z"/>
    <path d="M50,90 Q75.7,86.2 95.7,69.6 Q70.0,73.4 50,90 Z"/>
    <path d="M50,90 Q24.3,86.2 4.3,69.6 Q30.0,73.4 50,90 Z"/>
    <path d="M50,90 Q65.3,97.2 81.8,93.4 Q66.5,86.2 50,90 Z"/>
    <path d="M50,90 Q34.7,97.2 18.2,93.4 Q33.5,86.2 50,90 Z"/>
  </g>
  <rect x="48.6" y="88" width="2.8" height="9" rx="1.4" fill="#0f5132"/>
</svg>
